solid OpenSCAD_Model
  facet normal -1 0 0
    outer loop
      vertex 4.3 41.4 7.7
      vertex 4.3 46.6 22.5
      vertex 4.3 46.6 7.7
    endloop
  endfacet
  facet normal -1 -0 0
    outer loop
      vertex 4.3 46.6 22.5
      vertex 4.3 41.4 7.7
      vertex 4.3 41.4 22.5
    endloop
  endfacet
  facet normal -1 0 0
    outer loop
      vertex 4.3 46.6 7.7
      vertex 4.3 47.2 1.9
      vertex 4.3 46.6 4.5
    endloop
  endfacet
  facet normal -1 0 0
    outer loop
      vertex 4.3 47.2 1.9
      vertex 4.3 41.4 4.5
      vertex 4.3 46.6 4.5
    endloop
  endfacet
  facet normal -1 0 0
    outer loop
      vertex 4.3 39 1.9
      vertex 4.3 41.4 7.7
      vertex 4.3 41.4 4.5
    endloop
  endfacet
  facet normal -1 0 0
    outer loop
      vertex 4.3 39 26.6
      vertex 4.3 41.4 7.7
      vertex 4.3 39 1.9
    endloop
  endfacet
  facet normal -1 0 0
    outer loop
      vertex 4.3 41.4 7.7
      vertex 4.3 39 26.6
      vertex 4.3 41.4 22.5
    endloop
  endfacet
  facet normal -1 0 0
    outer loop
      vertex 4.3 39 1.9
      vertex 4.3 41.4 4.5
      vertex 4.3 47.2 1.9
    endloop
  endfacet
  facet normal -1 0 0
    outer loop
      vertex 4.3 47.2 1.9
      vertex 4.3 46.6 7.7
      vertex 4.3 47.2 26.6
    endloop
  endfacet
  facet normal -1 0 0
    outer loop
      vertex 4.3 46.6 22.5
      vertex 4.3 47.2 26.6
      vertex 4.3 46.6 7.7
    endloop
  endfacet
  facet normal -1 0 0
    outer loop
      vertex 4.3 46.6 25.7
      vertex 4.3 47.2 26.6
      vertex 4.3 46.6 22.5
    endloop
  endfacet
  facet normal -1 0 0
    outer loop
      vertex 4.3 41.4 25.7
      vertex 4.3 47.2 26.6
      vertex 4.3 46.6 25.7
    endloop
  endfacet
  facet normal -1 0 0
    outer loop
      vertex 4.3 41.4 25.7
      vertex 4.3 39 26.6
      vertex 4.3 47.2 26.6
    endloop
  endfacet
  facet normal -1 0 0
    outer loop
      vertex 4.3 41.4 22.5
      vertex 4.3 39 26.6
      vertex 4.3 41.4 25.7
    endloop
  endfacet
  facet normal -0 0 1
    outer loop
      vertex 4.3 47.2 26.6
      vertex 8.5 39 26.6
      vertex 8.5 47.2 26.6
    endloop
  endfacet
  facet normal 0 0 1
    outer loop
      vertex 8.5 39 26.6
      vertex 4.3 47.2 26.6
      vertex 4.3 39 26.6
    endloop
  endfacet
  facet normal 1 -0 0
    outer loop
      vertex 8.5 41.4 22.5
      vertex 8.5 46.6 7.7
      vertex 8.5 46.6 22.5
    endloop
  endfacet
  facet normal 1 0 0
    outer loop
      vertex 8.5 46.6 7.7
      vertex 8.5 41.4 22.5
      vertex 8.5 41.4 7.7
    endloop
  endfacet
  facet normal 1 0 0
    outer loop
      vertex 8.5 46.6 22.5
      vertex 8.5 47.2 26.6
      vertex 8.5 46.6 25.7
    endloop
  endfacet
  facet normal 1 0 0
    outer loop
      vertex 8.5 47.2 26.6
      vertex 8.5 41.4 25.7
      vertex 8.5 46.6 25.7
    endloop
  endfacet
  facet normal 1 0 0
    outer loop
      vertex 8.5 39 26.6
      vertex 8.5 41.4 22.5
      vertex 8.5 41.4 25.7
    endloop
  endfacet
  facet normal 1 0 0
    outer loop
      vertex 8.5 41.4 22.5
      vertex 8.5 39 26.6
      vertex 8.5 41.4 7.7
    endloop
  endfacet
  facet normal 1 0 0
    outer loop
      vertex 8.5 39 1.9
      vertex 8.5 41.4 7.7
      vertex 8.5 39 26.6
    endloop
  endfacet
  facet normal 1 -0 0
    outer loop
      vertex 8.5 39 26.6
      vertex 8.5 41.4 25.7
      vertex 8.5 47.2 26.6
    endloop
  endfacet
  facet normal 1 0 0
    outer loop
      vertex 8.5 46.6 7.7
      vertex 8.5 47.2 26.6
      vertex 8.5 46.6 22.5
    endloop
  endfacet
  facet normal 1 0 0
    outer loop
      vertex 8.5 47.2 26.6
      vertex 8.5 46.6 7.7
      vertex 8.5 47.2 1.9
    endloop
  endfacet
  facet normal 1 -0 0
    outer loop
      vertex 8.5 46.6 4.5
      vertex 8.5 47.2 1.9
      vertex 8.5 46.6 7.7
    endloop
  endfacet
  facet normal 1 -0 0
    outer loop
      vertex 8.5 41.4 4.5
      vertex 8.5 47.2 1.9
      vertex 8.5 46.6 4.5
    endloop
  endfacet
  facet normal 1 0 0
    outer loop
      vertex 8.5 41.4 4.5
      vertex 8.5 39 1.9
      vertex 8.5 47.2 1.9
    endloop
  endfacet
  facet normal 1 0 0
    outer loop
      vertex 8.5 41.4 7.7
      vertex 8.5 39 1.9
      vertex 8.5 41.4 4.5
    endloop
  endfacet
  facet normal 0 -1 0
    outer loop
      vertex 4.3 39 1.9
      vertex 8.5 39 26.6
      vertex 4.3 39 26.6
    endloop
  endfacet
  facet normal 0 -1 -0
    outer loop
      vertex 8.5 39 26.6
      vertex 4.3 39 1.9
      vertex 8.5 39 1.9
    endloop
  endfacet
  facet normal -1 0 0
    outer loop
      vertex 61.5 41.4 7.7
      vertex 61.5 46.6 22.5
      vertex 61.5 46.6 7.7
    endloop
  endfacet
  facet normal -1 -0 0
    outer loop
      vertex 61.5 46.6 22.5
      vertex 61.5 41.4 7.7
      vertex 61.5 41.4 22.5
    endloop
  endfacet
  facet normal -1 0 0
    outer loop
      vertex 61.5 46.6 7.7
      vertex 61.5 47.2 1.9
      vertex 61.5 46.6 4.5
    endloop
  endfacet
  facet normal -1 0 0
    outer loop
      vertex 61.5 47.2 1.9
      vertex 61.5 41.4 4.5
      vertex 61.5 46.6 4.5
    endloop
  endfacet
  facet normal -1 0 0
    outer loop
      vertex 61.5 39 1.9
      vertex 61.5 41.4 7.7
      vertex 61.5 41.4 4.5
    endloop
  endfacet
  facet normal -1 0 0
    outer loop
      vertex 61.5 39 26.6
      vertex 61.5 41.4 7.7
      vertex 61.5 39 1.9
    endloop
  endfacet
  facet normal -1 0 0
    outer loop
      vertex 61.5 41.4 7.7
      vertex 61.5 39 26.6
      vertex 61.5 41.4 22.5
    endloop
  endfacet
  facet normal -1 0 0
    outer loop
      vertex 61.5 39 1.9
      vertex 61.5 41.4 4.5
      vertex 61.5 47.2 1.9
    endloop
  endfacet
  facet normal -1 0 0
    outer loop
      vertex 61.5 47.2 1.9
      vertex 61.5 46.6 7.7
      vertex 61.5 47.2 26.6
    endloop
  endfacet
  facet normal -1 0 0
    outer loop
      vertex 61.5 46.6 22.5
      vertex 61.5 47.2 26.6
      vertex 61.5 46.6 7.7
    endloop
  endfacet
  facet normal -1 0 0
    outer loop
      vertex 61.5 46.6 25.7
      vertex 61.5 47.2 26.6
      vertex 61.5 46.6 22.5
    endloop
  endfacet
  facet normal -1 0 0
    outer loop
      vertex 61.5 41.4 25.7
      vertex 61.5 47.2 26.6
      vertex 61.5 46.6 25.7
    endloop
  endfacet
  facet normal -1 0 0
    outer loop
      vertex 61.5 41.4 25.7
      vertex 61.5 39 26.6
      vertex 61.5 47.2 26.6
    endloop
  endfacet
  facet normal -1 0 0
    outer loop
      vertex 61.5 41.4 22.5
      vertex 61.5 39 26.6
      vertex 61.5 41.4 25.7
    endloop
  endfacet
  facet normal -0 0 1
    outer loop
      vertex 61.5 47.2 26.6
      vertex 65.7 39 26.6
      vertex 65.7 47.2 26.6
    endloop
  endfacet
  facet normal 0 0 1
    outer loop
      vertex 65.7 39 26.6
      vertex 61.5 47.2 26.6
      vertex 61.5 39 26.6
    endloop
  endfacet
  facet normal 1 -0 0
    outer loop
      vertex 65.7 41.4 22.5
      vertex 65.7 46.6 7.7
      vertex 65.7 46.6 22.5
    endloop
  endfacet
  facet normal 1 0 0
    outer loop
      vertex 65.7 46.6 7.7
      vertex 65.7 41.4 22.5
      vertex 65.7 41.4 7.7
    endloop
  endfacet
  facet normal 1 0 0
    outer loop
      vertex 65.7 46.6 22.5
      vertex 65.7 47.2 26.6
      vertex 65.7 46.6 25.7
    endloop
  endfacet
  facet normal 1 0 0
    outer loop
      vertex 65.7 47.2 26.6
      vertex 65.7 41.4 25.7
      vertex 65.7 46.6 25.7
    endloop
  endfacet
  facet normal 1 0 0
    outer loop
      vertex 65.7 39 26.6
      vertex 65.7 41.4 22.5
      vertex 65.7 41.4 25.7
    endloop
  endfacet
  facet normal 1 0 0
    outer loop
      vertex 65.7 41.4 22.5
      vertex 65.7 39 26.6
      vertex 65.7 41.4 7.7
    endloop
  endfacet
  facet normal 1 0 0
    outer loop
      vertex 65.7 39 1.9
      vertex 65.7 41.4 7.7
      vertex 65.7 39 26.6
    endloop
  endfacet
  facet normal 1 -0 0
    outer loop
      vertex 65.7 39 26.6
      vertex 65.7 41.4 25.7
      vertex 65.7 47.2 26.6
    endloop
  endfacet
  facet normal 1 0 0
    outer loop
      vertex 65.7 46.6 7.7
      vertex 65.7 47.2 26.6
      vertex 65.7 46.6 22.5
    endloop
  endfacet
  facet normal 1 0 0
    outer loop
      vertex 65.7 47.2 26.6
      vertex 65.7 46.6 7.7
      vertex 65.7 47.2 1.9
    endloop
  endfacet
  facet normal 1 -0 0
    outer loop
      vertex 65.7 46.6 4.5
      vertex 65.7 47.2 1.9
      vertex 65.7 46.6 7.7
    endloop
  endfacet
  facet normal 1 -0 0
    outer loop
      vertex 65.7 41.4 4.5
      vertex 65.7 47.2 1.9
      vertex 65.7 46.6 4.5
    endloop
  endfacet
  facet normal 1 0 0
    outer loop
      vertex 65.7 41.4 4.5
      vertex 65.7 39 1.9
      vertex 65.7 47.2 1.9
    endloop
  endfacet
  facet normal 1 0 0
    outer loop
      vertex 65.7 41.4 7.7
      vertex 65.7 39 1.9
      vertex 65.7 41.4 4.5
    endloop
  endfacet
  facet normal 0 -1 0
    outer loop
      vertex 61.5 39 1.9
      vertex 65.7 39 26.6
      vertex 61.5 39 26.6
    endloop
  endfacet
  facet normal 0 -1 -0
    outer loop
      vertex 65.7 39 26.6
      vertex 61.5 39 1.9
      vertex 65.7 39 1.9
    endloop
  endfacet
  facet normal -1 0 0
    outer loop
      vertex 2.3 50 -3.8147e-07
      vertex 2.3 47.2 1.9
      vertex 2.3 50 37.6
    endloop
  endfacet
  facet normal -1 0 0
    outer loop
      vertex 2.3 2.3 -3.8147e-07
      vertex 2.3 47.2 1.9
      vertex 2.3 50 -3.8147e-07
    endloop
  endfacet
  facet normal -1 -0 0
    outer loop
      vertex 2.3 47.2 1.9
      vertex 2.3 2.3 -3.8147e-07
      vertex 2.3 2.3 1.9
    endloop
  endfacet
  facet normal -1 -0 0
    outer loop
      vertex 2.3 50 37.6
      vertex 2.3 47.2 1.9
      vertex 2.3 47.2 37.6
    endloop
  endfacet
  facet normal 0 0 1
    outer loop
      vertex 4.3 47.2 1.9
      vertex 2.3 47.2 1.9
      vertex 4.3 39 1.9
    endloop
  endfacet
  facet normal 0 0 1
    outer loop
      vertex 61.5 47.2 1.9
      vertex 55.085 28.5 1.9
      vertex 61.5 39 1.9
    endloop
  endfacet
  facet normal 0 0 1
    outer loop
      vertex 61.5 47.2 1.9
      vertex 14.915 28.5 1.9
      vertex 55.085 28.5 1.9
    endloop
  endfacet
  facet normal -0 0 1
    outer loop
      vertex 8.5 47.2 1.9
      vertex 14.915 28.5 1.9
      vertex 61.5 47.2 1.9
    endloop
  endfacet
  facet normal -0 0 1
    outer loop
      vertex 8.5 39 1.9
      vertex 14.915 28.5 1.9
      vertex 8.5 47.2 1.9
    endloop
  endfacet
  facet normal -0 0 1
    outer loop
      vertex 4.3 39 1.9
      vertex 14.915 28.5 1.9
      vertex 8.5 39 1.9
    endloop
  endfacet
  facet normal 0 0 1
    outer loop
      vertex 14.915 28.5 1.9
      vertex 4.3 39 1.9
      vertex 2.3 2.3 1.9
    endloop
  endfacet
  facet normal 0 0 1
    outer loop
      vertex 14.915 28.5 1.9
      vertex 2.3 2.3 1.9
      vertex 14.915 2.3 1.9
    endloop
  endfacet
  facet normal 0 0 1
    outer loop
      vertex 2.3 2.3 1.9
      vertex 4.3 39 1.9
      vertex 2.3 47.2 1.9
    endloop
  endfacet
  facet normal 0 0 1
    outer loop
      vertex 65.7 39 1.9
      vertex 67.7 47.2 1.9
      vertex 65.7 47.2 1.9
    endloop
  endfacet
  facet normal 0 0 1
    outer loop
      vertex 67.7 47.2 1.9
      vertex 65.7 39 1.9
      vertex 67.7 2.3 1.9
    endloop
  endfacet
  facet normal 0 0 1
    outer loop
      vertex 55.085 28.5 1.9
      vertex 65.7 39 1.9
      vertex 61.5 39 1.9
    endloop
  endfacet
  facet normal 0 0 1
    outer loop
      vertex 65.7 39 1.9
      vertex 55.085 28.5 1.9
      vertex 67.7 2.3 1.9
    endloop
  endfacet
  facet normal 0 0 1
    outer loop
      vertex 67.7 2.3 1.9
      vertex 55.085 28.5 1.9
      vertex 55.085 2.3 1.9
    endloop
  endfacet
  facet normal 1 0 0
    outer loop
      vertex 67.7 47.2 1.9
      vertex 67.7 50 37.6
      vertex 67.7 47.2 37.6
    endloop
  endfacet
  facet normal 1 0 0
    outer loop
      vertex 67.7 50 37.6
      vertex 67.7 47.2 1.9
      vertex 67.7 50 -3.8147e-07
    endloop
  endfacet
  facet normal 1 0 0
    outer loop
      vertex 67.7 2.3 -3.8147e-07
      vertex 67.7 47.2 1.9
      vertex 67.7 2.3 1.9
    endloop
  endfacet
  facet normal 1 0 0
    outer loop
      vertex 67.7 47.2 1.9
      vertex 67.7 2.3 -3.8147e-07
      vertex 67.7 50 -3.8147e-07
    endloop
  endfacet
  facet normal 0 0 -1
    outer loop
      vertex 2.3 2.3 -3.8147e-07
      vertex 67.7 50 -3.8147e-07
      vertex 67.7 2.3 -3.8147e-07
    endloop
  endfacet
  facet normal -0 0 -1
    outer loop
      vertex 67.7 50 -3.8147e-07
      vertex 2.3 2.3 -3.8147e-07
      vertex 2.3 50 -3.8147e-07
    endloop
  endfacet
  facet normal 0 -1 0
    outer loop
      vertex 2.3 2.3 -3.8147e-07
      vertex 14.915 2.3 1.9
      vertex 2.3 2.3 1.9
    endloop
  endfacet
  facet normal 0 -1 -0
    outer loop
      vertex 14.915 2.3 1.9
      vertex 2.3 2.3 -3.8147e-07
      vertex 55.085 2.3 1.9
    endloop
  endfacet
  facet normal 0 -1 0
    outer loop
      vertex 67.7 2.3 -3.8147e-07
      vertex 55.085 2.3 1.9
      vertex 2.3 2.3 -3.8147e-07
    endloop
  endfacet
  facet normal 0 -1 0
    outer loop
      vertex 55.085 2.3 1.9
      vertex 67.7 2.3 -3.8147e-07
      vertex 67.7 2.3 1.9
    endloop
  endfacet
  facet normal 0 -1 0
    outer loop
      vertex 14.915 2.3 1.9
      vertex 55.085 2.3 4.85
      vertex 14.915 2.3 4.85
    endloop
  endfacet
  facet normal 0 -1 -0
    outer loop
      vertex 55.085 2.3 4.85
      vertex 14.915 2.3 1.9
      vertex 55.085 2.3 1.9
    endloop
  endfacet
  facet normal 0 1 0
    outer loop
      vertex 67.7 50 37.6
      vertex 35 50 18.1
      vertex 2.3 50 37.6
    endloop
  endfacet
  facet normal 0 1 0
    outer loop
      vertex 67.7 50 37.6
      vertex 43 50 10.1
      vertex 35 50 18.1
    endloop
  endfacet
  facet normal 0 1 -0
    outer loop
      vertex 67.7 50 -3.8147e-07
      vertex 43 50 10.1
      vertex 67.7 50 37.6
    endloop
  endfacet
  facet normal 0 1 0
    outer loop
      vertex 43 50 6.1
      vertex 67.7 50 -3.8147e-07
      vertex 27 50 6.1
    endloop
  endfacet
  facet normal 0 1 0
    outer loop
      vertex 43 50 10.1
      vertex 67.7 50 -3.8147e-07
      vertex 43 50 6.1
    endloop
  endfacet
  facet normal 0 1 -0
    outer loop
      vertex 27 50 10.1
      vertex 2.3 50 37.6
      vertex 35 50 18.1
    endloop
  endfacet
  facet normal 0 1 0
    outer loop
      vertex 2.3 50 -3.8147e-07
      vertex 27 50 10.1
      vertex 27 50 6.1
    endloop
  endfacet
  facet normal 0 1 0
    outer loop
      vertex 27 50 10.1
      vertex 2.3 50 -3.8147e-07
      vertex 2.3 50 37.6
    endloop
  endfacet
  facet normal 0 1 0
    outer loop
      vertex 2.3 50 -3.8147e-07
      vertex 27 50 6.1
      vertex 67.7 50 -3.8147e-07
    endloop
  endfacet
  facet normal -0 0 1
    outer loop
      vertex 2.3 50 37.6
      vertex 67.7 47.2 37.6
      vertex 67.7 50 37.6
    endloop
  endfacet
  facet normal 0 0 1
    outer loop
      vertex 67.7 47.2 37.6
      vertex 2.3 50 37.6
      vertex 2.3 47.2 37.6
    endloop
  endfacet
  facet normal 0 -1 0
    outer loop
      vertex 43 47.2 10.1
      vertex 50 47.2 32.52
      vertex 35 47.2 18.1
    endloop
  endfacet
  facet normal 0 -1 0
    outer loop
      vertex 20 47.2 32.52
      vertex 27 47.2 10.1
      vertex 35 47.2 18.1
    endloop
  endfacet
  facet normal 0 -1 0
    outer loop
      vertex 8.5 47.2 1.9
      vertex 27 47.2 10.1
      vertex 8.5 47.2 26.6
    endloop
  endfacet
  facet normal 0 -1 -0
    outer loop
      vertex 27 47.2 6.1
      vertex 8.5 47.2 1.9
      vertex 43 47.2 6.1
    endloop
  endfacet
  facet normal 0 -1 -0
    outer loop
      vertex 27 47.2 10.1
      vertex 8.5 47.2 1.9
      vertex 27 47.2 6.1
    endloop
  endfacet
  facet normal 0 -1 0
    outer loop
      vertex 2.3 47.2 37.6
      vertex 20 47.2 37.4
      vertex 67.7 47.2 37.6
    endloop
  endfacet
  facet normal 0 -1 0
    outer loop
      vertex 8.5 47.2 26.6
      vertex 20 47.2 37.4
      vertex 2.3 47.2 37.6
    endloop
  endfacet
  facet normal 0 -1 -0
    outer loop
      vertex 20 47.2 37.4
      vertex 8.5 47.2 26.6
      vertex 20 47.2 32.52
    endloop
  endfacet
  facet normal 0 -1 0
    outer loop
      vertex 8.5 47.2 26.6
      vertex 2.3 47.2 37.6
      vertex 4.3 47.2 26.6
    endloop
  endfacet
  facet normal 0 -1 0
    outer loop
      vertex 2.3 47.2 1.9
      vertex 4.3 47.2 26.6
      vertex 2.3 47.2 37.6
    endloop
  endfacet
  facet normal 0 -1 -0
    outer loop
      vertex 4.3 47.2 26.6
      vertex 2.3 47.2 1.9
      vertex 4.3 47.2 1.9
    endloop
  endfacet
  facet normal 0 -1 0
    outer loop
      vertex 50 47.2 37.4
      vertex 67.7 47.2 37.6
      vertex 20 47.2 37.4
    endloop
  endfacet
  facet normal 0 -1 0
    outer loop
      vertex 61.5 47.2 26.6
      vertex 50 47.2 37.4
      vertex 50 47.2 32.52
    endloop
  endfacet
  facet normal 0 -1 0
    outer loop
      vertex 27 47.2 10.1
      vertex 20 47.2 32.52
      vertex 8.5 47.2 26.6
    endloop
  endfacet
  facet normal 0 -1 0
    outer loop
      vertex 20 47.2 32.52
      vertex 35 47.2 18.1
      vertex 50 47.2 32.52
    endloop
  endfacet
  facet normal 0 -1 0
    outer loop
      vertex 50 47.2 37.4
      vertex 61.5 47.2 26.6
      vertex 67.7 47.2 37.6
    endloop
  endfacet
  facet normal 0 -1 0
    outer loop
      vertex 65.7 47.2 26.6
      vertex 67.7 47.2 37.6
      vertex 61.5 47.2 26.6
    endloop
  endfacet
  facet normal 0 -1 0
    outer loop
      vertex 67.7 47.2 1.9
      vertex 65.7 47.2 26.6
      vertex 65.7 47.2 1.9
    endloop
  endfacet
  facet normal 0 -1 0
    outer loop
      vertex 65.7 47.2 26.6
      vertex 67.7 47.2 1.9
      vertex 67.7 47.2 37.6
    endloop
  endfacet
  facet normal 0 -1 -0
    outer loop
      vertex 50 47.2 32.52
      vertex 43 47.2 10.1
      vertex 61.5 47.2 26.6
    endloop
  endfacet
  facet normal 0 -1 0
    outer loop
      vertex 61.5 47.2 1.9
      vertex 43 47.2 10.1
      vertex 43 47.2 6.1
    endloop
  endfacet
  facet normal 0 -1 0
    outer loop
      vertex 43 47.2 10.1
      vertex 61.5 47.2 1.9
      vertex 61.5 47.2 26.6
    endloop
  endfacet
  facet normal 0 -1 0
    outer loop
      vertex 61.5 47.2 1.9
      vertex 43 47.2 6.1
      vertex 8.5 47.2 1.9
    endloop
  endfacet
  facet normal -1 0 0
    outer loop
      vertex 14.915 2.3 1.9
      vertex 14.915 28.5 4.85
      vertex 14.915 28.5 1.9
    endloop
  endfacet
  facet normal -1 -0 0
    outer loop
      vertex 14.915 28.5 4.85
      vertex 14.915 2.3 1.9
      vertex 14.915 2.3 4.85
    endloop
  endfacet
  facet normal -0 0 1
    outer loop
      vertex 14.915 28.5 4.85
      vertex 55.085 2.3 4.85
      vertex 55.085 28.5 4.85
    endloop
  endfacet
  facet normal 0 0 1
    outer loop
      vertex 55.085 2.3 4.85
      vertex 14.915 28.5 4.85
      vertex 14.915 2.3 4.85
    endloop
  endfacet
  facet normal 1 -0 0
    outer loop
      vertex 55.085 2.3 4.85
      vertex 55.085 28.5 1.9
      vertex 55.085 28.5 4.85
    endloop
  endfacet
  facet normal 1 0 0
    outer loop
      vertex 55.085 28.5 1.9
      vertex 55.085 2.3 4.85
      vertex 55.085 2.3 1.9
    endloop
  endfacet
  facet normal 0 1 -0
    outer loop
      vertex 55.085 28.5 1.9
      vertex 14.915 28.5 4.85
      vertex 55.085 28.5 4.85
    endloop
  endfacet
  facet normal 0 1 0
    outer loop
      vertex 14.915 28.5 4.85
      vertex 55.085 28.5 1.9
      vertex 14.915 28.5 1.9
    endloop
  endfacet
  facet normal -1 0 0
    outer loop
      vertex 20 45.32 34.4
      vertex 20 47.2 37.4
      vertex 20 47.2 32.52
    endloop
  endfacet
  facet normal -1 0 0
    outer loop
      vertex 20 45.3 37.4
      vertex 20 45.32 34.4
      vertex 20 45.3 34.4
    endloop
  endfacet
  facet normal -1 0 0
    outer loop
      vertex 20 45.32 34.4
      vertex 20 45.3 37.4
      vertex 20 47.2 37.4
    endloop
  endfacet
  facet normal -0 0 1
    outer loop
      vertex 20 47.2 37.4
      vertex 50 45.3 37.4
      vertex 50 47.2 37.4
    endloop
  endfacet
  facet normal 0 0 1
    outer loop
      vertex 50 45.3 37.4
      vertex 20 47.2 37.4
      vertex 20 45.3 37.4
    endloop
  endfacet
  facet normal 1 0 0
    outer loop
      vertex 50 47.2 37.4
      vertex 50 45.32 34.4
      vertex 50 47.2 32.52
    endloop
  endfacet
  facet normal 1 -0 0
    outer loop
      vertex 50 45.3 37.4
      vertex 50 45.32 34.4
      vertex 50 47.2 37.4
    endloop
  endfacet
  facet normal 1 0 0
    outer loop
      vertex 50 45.32 34.4
      vertex 50 45.3 37.4
      vertex 50 45.3 34.4
    endloop
  endfacet
  facet normal 0 0 -1
    outer loop
      vertex 20 45.3 34.4
      vertex 50 45.32 34.4
      vertex 50 45.3 34.4
    endloop
  endfacet
  facet normal -0 0 -1
    outer loop
      vertex 50 45.32 34.4
      vertex 20 45.3 34.4
      vertex 20 45.32 34.4
    endloop
  endfacet
  facet normal 0 -1 0
    outer loop
      vertex 20 45.3 34.4
      vertex 50 45.3 37.4
      vertex 20 45.3 37.4
    endloop
  endfacet
  facet normal 0 -1 -0
    outer loop
      vertex 50 45.3 37.4
      vertex 20 45.3 34.4
      vertex 50 45.3 34.4
    endloop
  endfacet
  facet normal 0 -0.707107 -0.707107
    outer loop
      vertex 20 47.2 32.52
      vertex 50 45.32 34.4
      vertex 20 45.32 34.4
    endloop
  endfacet
  facet normal 0 -0.707107 -0.707107
    outer loop
      vertex 50 45.32 34.4
      vertex 20 47.2 32.52
      vertex 50 47.2 32.52
    endloop
  endfacet
  facet normal 0 0 -1
    outer loop
      vertex 4.3 41.4 7.7
      vertex 8.5 46.6 7.7
      vertex 8.5 41.4 7.7
    endloop
  endfacet
  facet normal -0 0 -1
    outer loop
      vertex 8.5 46.6 7.7
      vertex 4.3 41.4 7.7
      vertex 4.3 46.6 7.7
    endloop
  endfacet
  facet normal -0 0 1
    outer loop
      vertex 4.3 46.6 4.5
      vertex 8.5 41.4 4.5
      vertex 8.5 46.6 4.5
    endloop
  endfacet
  facet normal 0 0 1
    outer loop
      vertex 8.5 41.4 4.5
      vertex 4.3 46.6 4.5
      vertex 4.3 41.4 4.5
    endloop
  endfacet
  facet normal 0 1 -0
    outer loop
      vertex 8.5 41.4 4.5
      vertex 4.3 41.4 7.7
      vertex 8.5 41.4 7.7
    endloop
  endfacet
  facet normal 0 1 0
    outer loop
      vertex 4.3 41.4 7.7
      vertex 8.5 41.4 4.5
      vertex 4.3 41.4 4.5
    endloop
  endfacet
  facet normal 0 -1 0
    outer loop
      vertex 4.3 46.6 4.5
      vertex 8.5 46.6 7.7
      vertex 4.3 46.6 7.7
    endloop
  endfacet
  facet normal 0 -1 -0
    outer loop
      vertex 8.5 46.6 7.7
      vertex 4.3 46.6 4.5
      vertex 8.5 46.6 4.5
    endloop
  endfacet
  facet normal 0 0 -1
    outer loop
      vertex 4.3 41.4 25.7
      vertex 8.5 46.6 25.7
      vertex 8.5 41.4 25.7
    endloop
  endfacet
  facet normal -0 0 -1
    outer loop
      vertex 8.5 46.6 25.7
      vertex 4.3 41.4 25.7
      vertex 4.3 46.6 25.7
    endloop
  endfacet
  facet normal -0 0 1
    outer loop
      vertex 4.3 46.6 22.5
      vertex 8.5 41.4 22.5
      vertex 8.5 46.6 22.5
    endloop
  endfacet
  facet normal 0 0 1
    outer loop
      vertex 8.5 41.4 22.5
      vertex 4.3 46.6 22.5
      vertex 4.3 41.4 22.5
    endloop
  endfacet
  facet normal 0 1 -0
    outer loop
      vertex 8.5 41.4 22.5
      vertex 4.3 41.4 25.7
      vertex 8.5 41.4 25.7
    endloop
  endfacet
  facet normal 0 1 0
    outer loop
      vertex 4.3 41.4 25.7
      vertex 8.5 41.4 22.5
      vertex 4.3 41.4 22.5
    endloop
  endfacet
  facet normal 0 -1 0
    outer loop
      vertex 4.3 46.6 22.5
      vertex 8.5 46.6 25.7
      vertex 4.3 46.6 25.7
    endloop
  endfacet
  facet normal 0 -1 -0
    outer loop
      vertex 8.5 46.6 25.7
      vertex 4.3 46.6 22.5
      vertex 8.5 46.6 22.5
    endloop
  endfacet
  facet normal 0 0 -1
    outer loop
      vertex 61.5 41.4 7.7
      vertex 65.7 46.6 7.7
      vertex 65.7 41.4 7.7
    endloop
  endfacet
  facet normal -0 0 -1
    outer loop
      vertex 65.7 46.6 7.7
      vertex 61.5 41.4 7.7
      vertex 61.5 46.6 7.7
    endloop
  endfacet
  facet normal -0 0 1
    outer loop
      vertex 61.5 46.6 4.5
      vertex 65.7 41.4 4.5
      vertex 65.7 46.6 4.5
    endloop
  endfacet
  facet normal 0 0 1
    outer loop
      vertex 65.7 41.4 4.5
      vertex 61.5 46.6 4.5
      vertex 61.5 41.4 4.5
    endloop
  endfacet
  facet normal 0 1 -0
    outer loop
      vertex 65.7 41.4 4.5
      vertex 61.5 41.4 7.7
      vertex 65.7 41.4 7.7
    endloop
  endfacet
  facet normal 0 1 0
    outer loop
      vertex 61.5 41.4 7.7
      vertex 65.7 41.4 4.5
      vertex 61.5 41.4 4.5
    endloop
  endfacet
  facet normal 0 -1 0
    outer loop
      vertex 61.5 46.6 4.5
      vertex 65.7 46.6 7.7
      vertex 61.5 46.6 7.7
    endloop
  endfacet
  facet normal 0 -1 -0
    outer loop
      vertex 65.7 46.6 7.7
      vertex 61.5 46.6 4.5
      vertex 65.7 46.6 4.5
    endloop
  endfacet
  facet normal 0 0 -1
    outer loop
      vertex 61.5 41.4 25.7
      vertex 65.7 46.6 25.7
      vertex 65.7 41.4 25.7
    endloop
  endfacet
  facet normal -0 0 -1
    outer loop
      vertex 65.7 46.6 25.7
      vertex 61.5 41.4 25.7
      vertex 61.5 46.6 25.7
    endloop
  endfacet
  facet normal -0 0 1
    outer loop
      vertex 61.5 46.6 22.5
      vertex 65.7 41.4 22.5
      vertex 65.7 46.6 22.5
    endloop
  endfacet
  facet normal 0 0 1
    outer loop
      vertex 65.7 41.4 22.5
      vertex 61.5 46.6 22.5
      vertex 61.5 41.4 22.5
    endloop
  endfacet
  facet normal 0 1 -0
    outer loop
      vertex 65.7 41.4 22.5
      vertex 61.5 41.4 25.7
      vertex 65.7 41.4 25.7
    endloop
  endfacet
  facet normal 0 1 0
    outer loop
      vertex 61.5 41.4 25.7
      vertex 65.7 41.4 22.5
      vertex 61.5 41.4 22.5
    endloop
  endfacet
  facet normal 0 -1 0
    outer loop
      vertex 61.5 46.6 22.5
      vertex 65.7 46.6 25.7
      vertex 61.5 46.6 25.7
    endloop
  endfacet
  facet normal 0 -1 -0
    outer loop
      vertex 65.7 46.6 25.7
      vertex 61.5 46.6 22.5
      vertex 65.7 46.6 22.5
    endloop
  endfacet
  facet normal 0.707107 0 -0.707107
    outer loop
      vertex 35 47.2 18.1
      vertex 27 50 10.1
      vertex 35 50 18.1
    endloop
  endfacet
  facet normal 0.707107 0 -0.707107
    outer loop
      vertex 27 50 10.1
      vertex 35 47.2 18.1
      vertex 27 47.2 10.1
    endloop
  endfacet
  facet normal -0.707107 0 -0.707107
    outer loop
      vertex 43 47.2 10.1
      vertex 35 50 18.1
      vertex 43 50 10.1
    endloop
  endfacet
  facet normal -0.707107 -0 -0.707107
    outer loop
      vertex 35 50 18.1
      vertex 43 47.2 10.1
      vertex 35 47.2 18.1
    endloop
  endfacet
  facet normal 1 -0 0
    outer loop
      vertex 27 47.2 10.1
      vertex 27 50 6.1
      vertex 27 50 10.1
    endloop
  endfacet
  facet normal 1 0 0
    outer loop
      vertex 27 50 6.1
      vertex 27 47.2 10.1
      vertex 27 47.2 6.1
    endloop
  endfacet
  facet normal -0 0 1
    outer loop
      vertex 27 50 6.1
      vertex 43 47.2 6.1
      vertex 43 50 6.1
    endloop
  endfacet
  facet normal 0 0 1
    outer loop
      vertex 43 47.2 6.1
      vertex 27 50 6.1
      vertex 27 47.2 6.1
    endloop
  endfacet
  facet normal -1 0 0
    outer loop
      vertex 43 47.2 6.1
      vertex 43 50 10.1
      vertex 43 50 6.1
    endloop
  endfacet
  facet normal -1 -0 0
    outer loop
      vertex 43 50 10.1
      vertex 43 47.2 6.1
      vertex 43 47.2 10.1
    endloop
  endfacet
endsolid OpenSCAD_Model
