solid OpenSCAD_Model
  facet normal -1 0 0
    outer loop
      vertex 8 48 1.9
      vertex 8 43.1 1.9
      vertex 8 48 6.8
    endloop
  endfacet
  facet normal 0 -1 0
    outer loop
      vertex 43 48 6.1
      vertex 56 48 6.8
      vertex 43 48 11.1
    endloop
  endfacet
  facet normal 0 -1 0
    outer loop
      vertex 56 48 1.9
      vertex 43 48 6.1
      vertex 14 48 1.9
    endloop
  endfacet
  facet normal 0 -1 0
    outer loop
      vertex 43 48 6.1
      vertex 56 48 1.9
      vertex 56 48 6.8
    endloop
  endfacet
  facet normal 0 -1 0
    outer loop
      vertex 2.3 48 57.6
      vertex 20 48 57.4
      vertex 67.7 48 57.6
    endloop
  endfacet
  facet normal 0 -1 0
    outer loop
      vertex 2.3 48 57.6
      vertex 20 48 54.4
      vertex 20 48 57.4
    endloop
  endfacet
  facet normal 0 -1 0
    outer loop
      vertex 20 48 54.4
      vertex 27 48 11.1
      vertex 50 48 54.4
    endloop
  endfacet
  facet normal 0 -1 0
    outer loop
      vertex 8 48 6.8
      vertex 20 48 54.4
      vertex 2.3 48 57.6
    endloop
  endfacet
  facet normal 0 -1 0
    outer loop
      vertex 20 48 54.4
      vertex 8 48 6.8
      vertex 14 48 6.8
    endloop
  endfacet
  facet normal 0 -1 0
    outer loop
      vertex 2.3 48 1.9
      vertex 8 48 6.8
      vertex 2.3 48 57.6
    endloop
  endfacet
  facet normal 0 -1 -0
    outer loop
      vertex 8 48 6.8
      vertex 2.3 48 1.9
      vertex 8 48 1.9
    endloop
  endfacet
  facet normal 0 -1 0
    outer loop
      vertex 50 48 57.4
      vertex 67.7 48 57.6
      vertex 20 48 57.4
    endloop
  endfacet
  facet normal 0 -1 0
    outer loop
      vertex 50 48 54.4
      vertex 67.7 48 57.6
      vertex 50 48 57.4
    endloop
  endfacet
  facet normal 0 -1 0
    outer loop
      vertex 43 48 11.1
      vertex 50 48 54.4
      vertex 27 48 11.1
    endloop
  endfacet
  facet normal 0 -1 0
    outer loop
      vertex 56 48 6.8
      vertex 50 48 54.4
      vertex 43 48 11.1
    endloop
  endfacet
  facet normal 0 -1 0
    outer loop
      vertex 62 48 6.8
      vertex 50 48 54.4
      vertex 56 48 6.8
    endloop
  endfacet
  facet normal 0 -1 0
    outer loop
      vertex 50 48 54.4
      vertex 62 48 6.8
      vertex 67.7 48 57.6
    endloop
  endfacet
  facet normal 0 -1 0
    outer loop
      vertex 67.7 48 1.9
      vertex 62 48 6.8
      vertex 62 48 1.9
    endloop
  endfacet
  facet normal 0 -1 0
    outer loop
      vertex 62 48 6.8
      vertex 67.7 48 1.9
      vertex 67.7 48 57.6
    endloop
  endfacet
  facet normal 0 -1 -0
    outer loop
      vertex 20 48 54.4
      vertex 14 48 6.8
      vertex 27 48 11.1
    endloop
  endfacet
  facet normal 0 -1 0
    outer loop
      vertex 14 48 6.8
      vertex 27 48 6.1
      vertex 27 48 11.1
    endloop
  endfacet
  facet normal 0 -1 -0
    outer loop
      vertex 27 48 6.1
      vertex 14 48 1.9
      vertex 43 48 6.1
    endloop
  endfacet
  facet normal 0 -1 0
    outer loop
      vertex 14 48 1.9
      vertex 27 48 6.1
      vertex 14 48 6.8
    endloop
  endfacet
  facet normal 0 -0.707107 0.707107
    outer loop
      vertex 8 48 6.8
      vertex 14 43.1 1.9
      vertex 14 48 6.8
    endloop
  endfacet
  facet normal 0 -0.707107 0.707107
    outer loop
      vertex 14 43.1 1.9
      vertex 8 48 6.8
      vertex 8 43.1 1.9
    endloop
  endfacet
  facet normal 1 0 0
    outer loop
      vertex 14 48 6.8
      vertex 14 43.1 1.9
      vertex 14 48 1.9
    endloop
  endfacet
  facet normal -1 0 0
    outer loop
      vertex 56 48 1.9
      vertex 56 43.1 1.9
      vertex 56 48 6.8
    endloop
  endfacet
  facet normal 1 0 0
    outer loop
      vertex 62 48 6.8
      vertex 62 43.1 1.9
      vertex 62 48 1.9
    endloop
  endfacet
  facet normal 0 -0.707107 0.707107
    outer loop
      vertex 56 48 6.8
      vertex 62 43.1 1.9
      vertex 62 48 6.8
    endloop
  endfacet
  facet normal 0 -0.707107 0.707107
    outer loop
      vertex 62 43.1 1.9
      vertex 56 48 6.8
      vertex 56 43.1 1.9
    endloop
  endfacet
  facet normal -1 0 0
    outer loop
      vertex 2.3 43.2 1.7
      vertex 2.3 43.5 -3.8147e-07
      vertex 2.3 43.2 0.0499998
    endloop
  endfacet
  facet normal -1 0 0
    outer loop
      vertex 2.3 43.5 -3.8147e-07
      vertex 2.3 40.7125 0.0499998
      vertex 2.3 43.2 0.0499998
    endloop
  endfacet
  facet normal -1 -0 0
    outer loop
      vertex 2.3 40.7125 0.0499998
      vertex 2.3 2.3 -3.8147e-07
      vertex 2.3 40.7125 1.7
    endloop
  endfacet
  facet normal -1 0 0
    outer loop
      vertex 2.3 2.3 -3.8147e-07
      vertex 2.3 40.7125 0.0499998
      vertex 2.3 43.5 -3.8147e-07
    endloop
  endfacet
  facet normal -1 0 0
    outer loop
      vertex 2.3 43.5 -3.8147e-07
      vertex 2.3 43.2 1.7
      vertex 2.3 43.5 1.9
    endloop
  endfacet
  facet normal -1 0 0
    outer loop
      vertex 2.3 40.7125 1.7
      vertex 2.3 43.5 1.9
      vertex 2.3 43.2 1.7
    endloop
  endfacet
  facet normal -1 0 0
    outer loop
      vertex 2.3 2.3 1.9
      vertex 2.3 40.7125 1.7
      vertex 2.3 2.3 -3.8147e-07
    endloop
  endfacet
  facet normal -1 0 0
    outer loop
      vertex 2.3 40.7125 1.7
      vertex 2.3 2.3 1.9
      vertex 2.3 43.5 1.9
    endloop
  endfacet
  facet normal -1 0 0
    outer loop
      vertex 2.3 50 -3.8147e-07
      vertex 2.3 48 1.9
      vertex 2.3 50 57.6
    endloop
  endfacet
  facet normal -1 0 0
    outer loop
      vertex 2.3 44.2 -3.8147e-07
      vertex 2.3 48 1.9
      vertex 2.3 50 -3.8147e-07
    endloop
  endfacet
  facet normal -1 -0 0
    outer loop
      vertex 2.3 48 1.9
      vertex 2.3 44.2 -3.8147e-07
      vertex 2.3 44.2 1.9
    endloop
  endfacet
  facet normal -1 -0 0
    outer loop
      vertex 2.3 50 57.6
      vertex 2.3 48 1.9
      vertex 2.3 48 57.6
    endloop
  endfacet
  facet normal 0 0 1
    outer loop
      vertex 3.5 43.5 1.9
      vertex 2.3 43.5 1.9
      vertex 3.5 20 1.9
    endloop
  endfacet
  facet normal 0 0 1
    outer loop
      vertex 56 48 1.9
      vertex 14 48 1.9
      vertex 56 43.1 1.9
    endloop
  endfacet
  facet normal 0 0 1
    outer loop
      vertex 67.7 48 1.9
      vertex 65.7 44.2 1.9
      vertex 67.7 44.2 1.9
    endloop
  endfacet
  facet normal -0 0 1
    outer loop
      vertex 62 43.1 1.9
      vertex 65.7 20 1.9
      vertex 65.7 44.2 1.9
    endloop
  endfacet
  facet normal -0 0 1
    outer loop
      vertex 62 48 1.9
      vertex 65.7 44.2 1.9
      vertex 67.7 48 1.9
    endloop
  endfacet
  facet normal 0 0 1
    outer loop
      vertex 62 43.1 1.9
      vertex 65.7 44.2 1.9
      vertex 62 48 1.9
    endloop
  endfacet
  facet normal -0 0 1
    outer loop
      vertex 56 43.1 1.9
      vertex 65.7 20 1.9
      vertex 62 43.1 1.9
    endloop
  endfacet
  facet normal 0 0 1
    outer loop
      vertex 65.7 20 1.9
      vertex 61.1 3.3 1.9
      vertex 64.1 3.3 1.9
    endloop
  endfacet
  facet normal -0 0 1
    outer loop
      vertex 14 43.1 1.9
      vertex 65.7 20 1.9
      vertex 56 43.1 1.9
    endloop
  endfacet
  facet normal 0 0 1
    outer loop
      vertex 65.7 20 1.9
      vertex 8.9 3.3 1.9
      vertex 61.1 3.3 1.9
    endloop
  endfacet
  facet normal 0 0 1
    outer loop
      vertex 14 43.1 1.9
      vertex 56 43.1 1.9
      vertex 14 48 1.9
    endloop
  endfacet
  facet normal 0 0 1
    outer loop
      vertex 65.7 20 1.9
      vertex 14 43.1 1.9
      vertex 8.9 3.3 1.9
    endloop
  endfacet
  facet normal 0 0 1
    outer loop
      vertex 61.1 3.3 1.9
      vertex 8.9 3.3 1.9
      vertex 61.1 2.3 1.9
    endloop
  endfacet
  facet normal 0 0 1
    outer loop
      vertex 61.1 2.3 1.9
      vertex 8.9 3.3 1.9
      vertex 8.9 2.3 1.9
    endloop
  endfacet
  facet normal 0 0 1
    outer loop
      vertex 66.5 20 1.9
      vertex 67.7 43.5 1.9
      vertex 66.5 43.5 1.9
    endloop
  endfacet
  facet normal 0 0 1
    outer loop
      vertex 67.7 43.5 1.9
      vertex 66.5 20 1.9
      vertex 67.7 2.3 1.9
    endloop
  endfacet
  facet normal 0 0 1
    outer loop
      vertex 64.1 3.3 1.9
      vertex 66.5 20 1.9
      vertex 65.7 20 1.9
    endloop
  endfacet
  facet normal 0 0 1
    outer loop
      vertex 66.5 20 1.9
      vertex 64.1 3.3 1.9
      vertex 67.7 2.3 1.9
    endloop
  endfacet
  facet normal 0 0 1
    outer loop
      vertex 67.7 2.3 1.9
      vertex 64.1 3.3 1.9
      vertex 64.1 2.3 1.9
    endloop
  endfacet
  facet normal -0 0 1
    outer loop
      vertex 4.3 44.2 1.9
      vertex 8 43.1 1.9
      vertex 8 48 1.9
    endloop
  endfacet
  facet normal 0 0 1
    outer loop
      vertex 8 43.1 1.9
      vertex 4.3 20 1.9
      vertex 5.9 3.3 1.9
    endloop
  endfacet
  facet normal 0 0 1
    outer loop
      vertex 8 43.1 1.9
      vertex 4.3 44.2 1.9
      vertex 4.3 20 1.9
    endloop
  endfacet
  facet normal -0 0 1
    outer loop
      vertex 2.3 48 1.9
      vertex 4.3 44.2 1.9
      vertex 8 48 1.9
    endloop
  endfacet
  facet normal 0 0 1
    outer loop
      vertex 4.3 44.2 1.9
      vertex 2.3 48 1.9
      vertex 2.3 44.2 1.9
    endloop
  endfacet
  facet normal -0 0 1
    outer loop
      vertex 8 43.1 1.9
      vertex 8.9 3.3 1.9
      vertex 14 43.1 1.9
    endloop
  endfacet
  facet normal 0 0 1
    outer loop
      vertex 8.9 3.3 1.9
      vertex 8 43.1 1.9
      vertex 5.9 3.3 1.9
    endloop
  endfacet
  facet normal -0 0 1
    outer loop
      vertex 3.5 20 1.9
      vertex 5.9 3.3 1.9
      vertex 4.3 20 1.9
    endloop
  endfacet
  facet normal 0 0 1
    outer loop
      vertex 5.9 3.3 1.9
      vertex 3.5 20 1.9
      vertex 2.3 2.3 1.9
    endloop
  endfacet
  facet normal 0 0 1
    outer loop
      vertex 5.9 3.3 1.9
      vertex 2.3 2.3 1.9
      vertex 5.9 2.3 1.9
    endloop
  endfacet
  facet normal 0 0 1
    outer loop
      vertex 2.3 2.3 1.9
      vertex 3.5 20 1.9
      vertex 2.3 43.5 1.9
    endloop
  endfacet
  facet normal 1 0 0
    outer loop
      vertex 67.7 43.5 1.9
      vertex 67.7 43.2 1.7
      vertex 67.7 43.5 -3.8147e-07
    endloop
  endfacet
  facet normal 1 0 0
    outer loop
      vertex 67.7 43.5 1.9
      vertex 67.7 40.7125 1.7
      vertex 67.7 43.2 1.7
    endloop
  endfacet
  facet normal 1 0 0
    outer loop
      vertex 67.7 40.7125 1.7
      vertex 67.7 2.3 1.9
      vertex 67.7 40.7125 0.0499998
    endloop
  endfacet
  facet normal 1 -0 0
    outer loop
      vertex 67.7 2.3 1.9
      vertex 67.7 40.7125 1.7
      vertex 67.7 43.5 1.9
    endloop
  endfacet
  facet normal 1 -0 0
    outer loop
      vertex 67.7 43.2 0.0499998
      vertex 67.7 43.5 -3.8147e-07
      vertex 67.7 43.2 1.7
    endloop
  endfacet
  facet normal 1 -0 0
    outer loop
      vertex 67.7 40.7125 0.0499998
      vertex 67.7 43.5 -3.8147e-07
      vertex 67.7 43.2 0.0499998
    endloop
  endfacet
  facet normal 1 0 0
    outer loop
      vertex 67.7 40.7125 0.0499998
      vertex 67.7 2.3 -3.8147e-07
      vertex 67.7 43.5 -3.8147e-07
    endloop
  endfacet
  facet normal 1 0 0
    outer loop
      vertex 67.7 2.3 -3.8147e-07
      vertex 67.7 40.7125 0.0499998
      vertex 67.7 2.3 1.9
    endloop
  endfacet
  facet normal 1 0 0
    outer loop
      vertex 67.7 48 1.9
      vertex 67.7 50 57.6
      vertex 67.7 48 57.6
    endloop
  endfacet
  facet normal 1 0 0
    outer loop
      vertex 67.7 50 57.6
      vertex 67.7 48 1.9
      vertex 67.7 50 -3.8147e-07
    endloop
  endfacet
  facet normal 1 0 0
    outer loop
      vertex 67.7 44.2 -3.8147e-07
      vertex 67.7 48 1.9
      vertex 67.7 44.2 1.9
    endloop
  endfacet
  facet normal 1 0 0
    outer loop
      vertex 67.7 48 1.9
      vertex 67.7 44.2 -3.8147e-07
      vertex 67.7 50 -3.8147e-07
    endloop
  endfacet
  facet normal 0 1 0
    outer loop
      vertex 67.7 50 57.6
      vertex 43 50 11.1
      vertex 2.3 50 57.6
    endloop
  endfacet
  facet normal 0 1 -0
    outer loop
      vertex 67.7 50 -3.8147e-07
      vertex 43 50 11.1
      vertex 67.7 50 57.6
    endloop
  endfacet
  facet normal 0 1 0
    outer loop
      vertex 43 50 6.1
      vertex 67.7 50 -3.8147e-07
      vertex 27 50 6.1
    endloop
  endfacet
  facet normal 0 1 0
    outer loop
      vertex 43 50 11.1
      vertex 67.7 50 -3.8147e-07
      vertex 43 50 6.1
    endloop
  endfacet
  facet normal 0 1 -0
    outer loop
      vertex 27 50 11.1
      vertex 2.3 50 57.6
      vertex 43 50 11.1
    endloop
  endfacet
  facet normal 0 1 0
    outer loop
      vertex 2.3 50 -3.8147e-07
      vertex 27 50 11.1
      vertex 27 50 6.1
    endloop
  endfacet
  facet normal 0 1 0
    outer loop
      vertex 27 50 11.1
      vertex 2.3 50 -3.8147e-07
      vertex 2.3 50 57.6
    endloop
  endfacet
  facet normal 0 1 0
    outer loop
      vertex 2.3 50 -3.8147e-07
      vertex 27 50 6.1
      vertex 67.7 50 -3.8147e-07
    endloop
  endfacet
  facet normal 0 0 -1
    outer loop
      vertex 67.7 2.3 -3.8147e-07
      vertex 66.5 20 -3.8147e-07
      vertex 67.7 43.5 -3.8147e-07
    endloop
  endfacet
  facet normal 0 0 -1
    outer loop
      vertex 67.7 2.3 -3.8147e-07
      vertex 65.7 20 -3.8147e-07
      vertex 66.5 20 -3.8147e-07
    endloop
  endfacet
  facet normal 0 0 -1
    outer loop
      vertex 65.7 20 -3.8147e-07
      vertex 4.3 20 -3.8147e-07
      vertex 65.7 44.2 -3.8147e-07
    endloop
  endfacet
  facet normal 0 0 -1
    outer loop
      vertex 67.7 2.3 -3.8147e-07
      vertex 4.3 20 -3.8147e-07
      vertex 65.7 20 -3.8147e-07
    endloop
  endfacet
  facet normal 0 0 -1
    outer loop
      vertex 2.3 2.3 -3.8147e-07
      vertex 4.3 20 -3.8147e-07
      vertex 67.7 2.3 -3.8147e-07
    endloop
  endfacet
  facet normal -0 0 -1
    outer loop
      vertex 4.3 20 -3.8147e-07
      vertex 2.3 2.3 -3.8147e-07
      vertex 3.5 20 -3.8147e-07
    endloop
  endfacet
  facet normal 0 0 -1
    outer loop
      vertex 2.3 43.5 -3.8147e-07
      vertex 3.5 20 -3.8147e-07
      vertex 2.3 2.3 -3.8147e-07
    endloop
  endfacet
  facet normal 0 0 -1
    outer loop
      vertex 3.5 20 -3.8147e-07
      vertex 2.3 43.5 -3.8147e-07
      vertex 3.5 43.5 -3.8147e-07
    endloop
  endfacet
  facet normal -0 0 -1
    outer loop
      vertex 67.7 43.5 -3.8147e-07
      vertex 66.5 20 -3.8147e-07
      vertex 66.5 43.5 -3.8147e-07
    endloop
  endfacet
  facet normal 0 0 -1
    outer loop
      vertex 65.7 44.2 -3.8147e-07
      vertex 67.7 50 -3.8147e-07
      vertex 67.7 44.2 -3.8147e-07
    endloop
  endfacet
  facet normal 0 0 -1
    outer loop
      vertex 4.3 44.2 -3.8147e-07
      vertex 65.7 44.2 -3.8147e-07
      vertex 4.3 20 -3.8147e-07
    endloop
  endfacet
  facet normal 0 0 -1
    outer loop
      vertex 65.7 44.2 -3.8147e-07
      vertex 4.3 44.2 -3.8147e-07
      vertex 67.7 50 -3.8147e-07
    endloop
  endfacet
  facet normal 0 0 -1
    outer loop
      vertex 2.3 50 -3.8147e-07
      vertex 4.3 44.2 -3.8147e-07
      vertex 2.3 44.2 -3.8147e-07
    endloop
  endfacet
  facet normal 0 0 -1
    outer loop
      vertex 4.3 44.2 -3.8147e-07
      vertex 2.3 50 -3.8147e-07
      vertex 67.7 50 -3.8147e-07
    endloop
  endfacet
  facet normal 0 -1 0
    outer loop
      vertex 2.3 2.3 -3.8147e-07
      vertex 5.9 2.3 1.9
      vertex 2.3 2.3 1.9
    endloop
  endfacet
  facet normal 0 -1 -0
    outer loop
      vertex 5.9 2.3 1.9
      vertex 2.3 2.3 -3.8147e-07
      vertex 8.9 2.3 1.9
    endloop
  endfacet
  facet normal 0 -1 -0
    outer loop
      vertex 8.9 2.3 1.9
      vertex 2.3 2.3 -3.8147e-07
      vertex 61.1 2.3 1.9
    endloop
  endfacet
  facet normal 0 -1 0
    outer loop
      vertex 67.7 2.3 -3.8147e-07
      vertex 61.1 2.3 1.9
      vertex 2.3 2.3 -3.8147e-07
    endloop
  endfacet
  facet normal 0 -1 0
    outer loop
      vertex 61.1 2.3 1.9
      vertex 67.7 2.3 -3.8147e-07
      vertex 64.1 2.3 1.9
    endloop
  endfacet
  facet normal 0 -1 0
    outer loop
      vertex 64.1 2.3 1.9
      vertex 67.7 2.3 -3.8147e-07
      vertex 67.7 2.3 1.9
    endloop
  endfacet
  facet normal 0 -1 0
    outer loop
      vertex 5.9 2.3 1.9
      vertex 8.9 2.3 10.25
      vertex 5.9 2.3 10.25
    endloop
  endfacet
  facet normal 0 -1 -0
    outer loop
      vertex 8.9 2.3 10.25
      vertex 5.9 2.3 1.9
      vertex 8.9 2.3 1.9
    endloop
  endfacet
  facet normal 0 -1 0
    outer loop
      vertex 61.1 2.3 1.9
      vertex 64.1 2.3 10.25
      vertex 61.1 2.3 10.25
    endloop
  endfacet
  facet normal 0 -1 -0
    outer loop
      vertex 64.1 2.3 10.25
      vertex 61.1 2.3 1.9
      vertex 64.1 2.3 1.9
    endloop
  endfacet
  facet normal -0 0 1
    outer loop
      vertex 2.3 50 57.6
      vertex 67.7 48 57.6
      vertex 67.7 50 57.6
    endloop
  endfacet
  facet normal 0 0 1
    outer loop
      vertex 67.7 48 57.6
      vertex 2.3 50 57.6
      vertex 2.3 48 57.6
    endloop
  endfacet
  facet normal 1 -0 0
    outer loop
      vertex 3.5 20 1.9
      vertex 3.5 43.5 -3.8147e-07
      vertex 3.5 43.5 1.9
    endloop
  endfacet
  facet normal 1 0 0
    outer loop
      vertex 3.5 43.5 -3.8147e-07
      vertex 3.5 20 1.9
      vertex 3.5 20 -3.8147e-07
    endloop
  endfacet
  facet normal -1 0 0
    outer loop
      vertex 4.3 20 -3.8147e-07
      vertex 4.3 44.2 1.9
      vertex 4.3 44.2 -3.8147e-07
    endloop
  endfacet
  facet normal -1 -0 0
    outer loop
      vertex 4.3 44.2 1.9
      vertex 4.3 20 -3.8147e-07
      vertex 4.3 20 1.9
    endloop
  endfacet
  facet normal 0 -1 0
    outer loop
      vertex 2.3 44.2 -3.8147e-07
      vertex 4.3 44.2 1.9
      vertex 2.3 44.2 1.9
    endloop
  endfacet
  facet normal 0 -1 -0
    outer loop
      vertex 4.3 44.2 1.9
      vertex 2.3 44.2 -3.8147e-07
      vertex 4.3 44.2 -3.8147e-07
    endloop
  endfacet
  facet normal 0 1 -0
    outer loop
      vertex 4.3 20 -3.8147e-07
      vertex 3.5 20 1.9
      vertex 4.3 20 1.9
    endloop
  endfacet
  facet normal 0 1 0
    outer loop
      vertex 3.5 20 1.9
      vertex 4.3 20 -3.8147e-07
      vertex 3.5 20 -3.8147e-07
    endloop
  endfacet
  facet normal 0 1 -0
    outer loop
      vertex 3.5 43.5 -3.8147e-07
      vertex 2.3 43.5 1.9
      vertex 3.5 43.5 1.9
    endloop
  endfacet
  facet normal 0 1 0
    outer loop
      vertex 2.3 43.5 1.9
      vertex 3.5 43.5 -3.8147e-07
      vertex 2.3 43.5 -3.8147e-07
    endloop
  endfacet
  facet normal 1 -0 0
    outer loop
      vertex 65.7 20 1.9
      vertex 65.7 44.2 -3.8147e-07
      vertex 65.7 44.2 1.9
    endloop
  endfacet
  facet normal 1 0 0
    outer loop
      vertex 65.7 44.2 -3.8147e-07
      vertex 65.7 20 1.9
      vertex 65.7 20 -3.8147e-07
    endloop
  endfacet
  facet normal -1 0 0
    outer loop
      vertex 66.5 20 -3.8147e-07
      vertex 66.5 43.5 1.9
      vertex 66.5 43.5 -3.8147e-07
    endloop
  endfacet
  facet normal -1 -0 0
    outer loop
      vertex 66.5 43.5 1.9
      vertex 66.5 20 -3.8147e-07
      vertex 66.5 20 1.9
    endloop
  endfacet
  facet normal 0 -1 0
    outer loop
      vertex 65.7 44.2 -3.8147e-07
      vertex 67.7 44.2 1.9
      vertex 65.7 44.2 1.9
    endloop
  endfacet
  facet normal 0 -1 -0
    outer loop
      vertex 67.7 44.2 1.9
      vertex 65.7 44.2 -3.8147e-07
      vertex 67.7 44.2 -3.8147e-07
    endloop
  endfacet
  facet normal 0 1 -0
    outer loop
      vertex 66.5 20 -3.8147e-07
      vertex 65.7 20 1.9
      vertex 66.5 20 1.9
    endloop
  endfacet
  facet normal 0 1 0
    outer loop
      vertex 65.7 20 1.9
      vertex 66.5 20 -3.8147e-07
      vertex 65.7 20 -3.8147e-07
    endloop
  endfacet
  facet normal 0 1 -0
    outer loop
      vertex 67.7 43.5 -3.8147e-07
      vertex 66.5 43.5 1.9
      vertex 67.7 43.5 1.9
    endloop
  endfacet
  facet normal 0 1 0
    outer loop
      vertex 66.5 43.5 1.9
      vertex 67.7 43.5 -3.8147e-07
      vertex 66.5 43.5 -3.8147e-07
    endloop
  endfacet
  facet normal 1 -0 0
    outer loop
      vertex 27 48 11.1
      vertex 27 50 6.1
      vertex 27 50 11.1
    endloop
  endfacet
  facet normal 1 0 0
    outer loop
      vertex 27 50 6.1
      vertex 27 48 11.1
      vertex 27 48 6.1
    endloop
  endfacet
  facet normal 0 0 -1
    outer loop
      vertex 27 48 11.1
      vertex 43 50 11.1
      vertex 43 48 11.1
    endloop
  endfacet
  facet normal -0 0 -1
    outer loop
      vertex 43 50 11.1
      vertex 27 48 11.1
      vertex 27 50 11.1
    endloop
  endfacet
  facet normal -1 0 0
    outer loop
      vertex 43 48 6.1
      vertex 43 50 11.1
      vertex 43 50 6.1
    endloop
  endfacet
  facet normal -1 -0 0
    outer loop
      vertex 43 50 11.1
      vertex 43 48 6.1
      vertex 43 48 11.1
    endloop
  endfacet
  facet normal -0 0 1
    outer loop
      vertex 27 50 6.1
      vertex 43 48 6.1
      vertex 43 50 6.1
    endloop
  endfacet
  facet normal 0 0 1
    outer loop
      vertex 43 48 6.1
      vertex 27 50 6.1
      vertex 27 48 6.1
    endloop
  endfacet
  facet normal -1 0 0
    outer loop
      vertex 5.9 2.3 1.9
      vertex 5.9 3.3 10.25
      vertex 5.9 3.3 1.9
    endloop
  endfacet
  facet normal -1 -0 0
    outer loop
      vertex 5.9 3.3 10.25
      vertex 5.9 2.3 1.9
      vertex 5.9 2.3 10.25
    endloop
  endfacet
  facet normal -0 0 1
    outer loop
      vertex 5.9 3.3 10.25
      vertex 8.9 2.3 10.25
      vertex 8.9 3.3 10.25
    endloop
  endfacet
  facet normal 0 0 1
    outer loop
      vertex 8.9 2.3 10.25
      vertex 5.9 3.3 10.25
      vertex 5.9 2.3 10.25
    endloop
  endfacet
  facet normal 1 -0 0
    outer loop
      vertex 8.9 2.3 10.25
      vertex 8.9 3.3 1.9
      vertex 8.9 3.3 10.25
    endloop
  endfacet
  facet normal 1 0 0
    outer loop
      vertex 8.9 3.3 1.9
      vertex 8.9 2.3 10.25
      vertex 8.9 2.3 1.9
    endloop
  endfacet
  facet normal 0 1 -0
    outer loop
      vertex 8.9 3.3 1.9
      vertex 5.9 3.3 10.25
      vertex 8.9 3.3 10.25
    endloop
  endfacet
  facet normal 0 1 0
    outer loop
      vertex 5.9 3.3 10.25
      vertex 8.9 3.3 1.9
      vertex 5.9 3.3 1.9
    endloop
  endfacet
  facet normal -1 0 0
    outer loop
      vertex 61.1 2.3 1.9
      vertex 61.1 3.3 10.25
      vertex 61.1 3.3 1.9
    endloop
  endfacet
  facet normal -1 -0 0
    outer loop
      vertex 61.1 3.3 10.25
      vertex 61.1 2.3 1.9
      vertex 61.1 2.3 10.25
    endloop
  endfacet
  facet normal -0 0 1
    outer loop
      vertex 61.1 3.3 10.25
      vertex 64.1 2.3 10.25
      vertex 64.1 3.3 10.25
    endloop
  endfacet
  facet normal 0 0 1
    outer loop
      vertex 64.1 2.3 10.25
      vertex 61.1 3.3 10.25
      vertex 61.1 2.3 10.25
    endloop
  endfacet
  facet normal 1 -0 0
    outer loop
      vertex 64.1 2.3 10.25
      vertex 64.1 3.3 1.9
      vertex 64.1 3.3 10.25
    endloop
  endfacet
  facet normal 1 0 0
    outer loop
      vertex 64.1 3.3 1.9
      vertex 64.1 2.3 10.25
      vertex 64.1 2.3 1.9
    endloop
  endfacet
  facet normal 0 1 -0
    outer loop
      vertex 64.1 3.3 1.9
      vertex 61.1 3.3 10.25
      vertex 64.1 3.3 10.25
    endloop
  endfacet
  facet normal 0 1 0
    outer loop
      vertex 61.1 3.3 10.25
      vertex 64.1 3.3 1.9
      vertex 61.1 3.3 1.9
    endloop
  endfacet
  facet normal 0 0 -1
    outer loop
      vertex 1.54999 42.4 0.0499998
      vertex 2.3 43.2 0.0499998
      vertex 2.3 40.7125 0.0499998
    endloop
  endfacet
  facet normal -0 0 -1
    outer loop
      vertex 2.3 43.2 0.0499998
      vertex 1.54999 42.4 0.0499998
      vertex 1.54999 43.2 0.0499998
    endloop
  endfacet
  facet normal -1 0 0
    outer loop
      vertex 1.54999 42.4 0.0499998
      vertex 1.54999 43.2 1.7
      vertex 1.54999 43.2 0.0499998
    endloop
  endfacet
  facet normal -1 -0 0
    outer loop
      vertex 1.54999 43.2 1.7
      vertex 1.54999 42.4 0.0499998
      vertex 1.54999 42.4 1.7
    endloop
  endfacet
  facet normal -0.91381 -0.406143 0
    outer loop
      vertex 2.3 40.7125 0.0499998
      vertex 1.54999 42.4 1.7
      vertex 1.54999 42.4 0.0499998
    endloop
  endfacet
  facet normal -0.91381 -0.406143 0
    outer loop
      vertex 1.54999 42.4 1.7
      vertex 2.3 40.7125 0.0499998
      vertex 2.3 40.7125 1.7
    endloop
  endfacet
  facet normal 0 1 -0
    outer loop
      vertex 2.3 43.2 0.0499998
      vertex 1.54999 43.2 1.7
      vertex 2.3 43.2 1.7
    endloop
  endfacet
  facet normal 0 1 0
    outer loop
      vertex 1.54999 43.2 1.7
      vertex 2.3 43.2 0.0499998
      vertex 1.54999 43.2 0.0499998
    endloop
  endfacet
  facet normal 0 0 1
    outer loop
      vertex 1.54999 42.4 1.7
      vertex 2.3 43.2 1.7
      vertex 1.54999 43.2 1.7
    endloop
  endfacet
  facet normal 0 0 1
    outer loop
      vertex 2.3 43.2 1.7
      vertex 1.54999 42.4 1.7
      vertex 2.3 40.7125 1.7
    endloop
  endfacet
  facet normal 1 -0 0
    outer loop
      vertex 68.45 42.4 1.7
      vertex 68.45 43.2 0.0499998
      vertex 68.45 43.2 1.7
    endloop
  endfacet
  facet normal 1 0 0
    outer loop
      vertex 68.45 43.2 0.0499998
      vertex 68.45 42.4 1.7
      vertex 68.45 42.4 0.0499998
    endloop
  endfacet
  facet normal 0 1 -0
    outer loop
      vertex 68.45 43.2 0.0499998
      vertex 67.7 43.2 1.7
      vertex 68.45 43.2 1.7
    endloop
  endfacet
  facet normal 0 1 0
    outer loop
      vertex 67.7 43.2 1.7
      vertex 68.45 43.2 0.0499998
      vertex 67.7 43.2 0.0499998
    endloop
  endfacet
  facet normal 0.913812 -0.406138 0
    outer loop
      vertex 67.7 40.7125 1.7
      vertex 68.45 42.4 0.0499998
      vertex 68.45 42.4 1.7
    endloop
  endfacet
  facet normal 0.913812 -0.406138 0
    outer loop
      vertex 68.45 42.4 0.0499998
      vertex 67.7 40.7125 1.7
      vertex 67.7 40.7125 0.0499998
    endloop
  endfacet
  facet normal -0 0 1
    outer loop
      vertex 67.7 43.2 1.7
      vertex 68.45 42.4 1.7
      vertex 68.45 43.2 1.7
    endloop
  endfacet
  facet normal 0 0 1
    outer loop
      vertex 68.45 42.4 1.7
      vertex 67.7 43.2 1.7
      vertex 67.7 40.7125 1.7
    endloop
  endfacet
  facet normal 0 0 -1
    outer loop
      vertex 67.7 43.2 0.0499998
      vertex 68.45 42.4 0.0499998
      vertex 67.7 40.7125 0.0499998
    endloop
  endfacet
  facet normal 0 0 -1
    outer loop
      vertex 68.45 42.4 0.0499998
      vertex 67.7 43.2 0.0499998
      vertex 68.45 43.2 0.0499998
    endloop
  endfacet
  facet normal -1 0 0
    outer loop
      vertex 20 45.3 54.4
      vertex 20 48 57.4
      vertex 20 48 54.4
    endloop
  endfacet
  facet normal -1 -0 0
    outer loop
      vertex 20 48 57.4
      vertex 20 45.3 54.4
      vertex 20 45.3 57.4
    endloop
  endfacet
  facet normal -0 0 1
    outer loop
      vertex 20 48 57.4
      vertex 50 45.3 57.4
      vertex 50 48 57.4
    endloop
  endfacet
  facet normal 0 0 1
    outer loop
      vertex 50 45.3 57.4
      vertex 20 48 57.4
      vertex 20 45.3 57.4
    endloop
  endfacet
  facet normal 1 -0 0
    outer loop
      vertex 50 45.3 57.4
      vertex 50 48 54.4
      vertex 50 48 57.4
    endloop
  endfacet
  facet normal 1 0 0
    outer loop
      vertex 50 48 54.4
      vertex 50 45.3 57.4
      vertex 50 45.3 54.4
    endloop
  endfacet
  facet normal 0 0 -1
    outer loop
      vertex 20 45.3 54.4
      vertex 50 48 54.4
      vertex 50 45.3 54.4
    endloop
  endfacet
  facet normal -0 0 -1
    outer loop
      vertex 50 48 54.4
      vertex 20 45.3 54.4
      vertex 20 48 54.4
    endloop
  endfacet
  facet normal 0 -1 0
    outer loop
      vertex 20 45.3 54.4
      vertex 50 45.3 57.4
      vertex 20 45.3 57.4
    endloop
  endfacet
  facet normal 0 -1 -0
    outer loop
      vertex 50 45.3 57.4
      vertex 20 45.3 54.4
      vertex 50 45.3 54.4
    endloop
  endfacet
endsolid OpenSCAD_Model
