solid OpenSCAD_Model
  facet normal 0 1 -0
    outer loop
      vertex 2.79999 36.3 -5.72205e-06
      vertex -1.14441e-05 36.3 0.599999
      vertex 2.79999 36.3 3.39999
    endloop
  endfacet
  facet normal 0 1 0
    outer loop
      vertex -1.14441e-05 36.3 0.599999
      vertex 2.79999 36.3 -5.72205e-06
      vertex -1.14441e-05 36.3 -5.72205e-06
    endloop
  endfacet
  facet normal 1 -0 0
    outer loop
      vertex 2.79999 0 3.39999
      vertex 2.79999 36.3 -5.72205e-06
      vertex 2.79999 36.3 3.39999
    endloop
  endfacet
  facet normal 1 0 0
    outer loop
      vertex 2.79999 36.3 -5.72205e-06
      vertex 2.79999 0 3.39999
      vertex 2.79999 0 -5.72205e-06
    endloop
  endfacet
  facet normal 0 -1 0
    outer loop
      vertex 2.79999 0 -5.72205e-06
      vertex -1.14441e-05 0 0.599999
      vertex -1.14441e-05 0 -5.72205e-06
    endloop
  endfacet
  facet normal 0 -1 0
    outer loop
      vertex -1.14441e-05 0 0.599999
      vertex 2.79999 0 -5.72205e-06
      vertex 2.79999 0 3.39999
    endloop
  endfacet
  facet normal -0.707105 0 0.707108
    outer loop
      vertex -1.14441e-05 36.3 0.599999
      vertex 2.79999 0 3.39999
      vertex 2.79999 36.3 3.39999
    endloop
  endfacet
  facet normal -0.707105 0 0.707108
    outer loop
      vertex 2.79999 0 3.39999
      vertex -1.14441e-05 36.3 0.599999
      vertex -1.14441e-05 0 0.599999
    endloop
  endfacet
  facet normal -1 0 0
    outer loop
      vertex -1.14441e-05 0 -5.72205e-06
      vertex -1.14441e-05 36.3 0.599999
      vertex -1.14441e-05 36.3 -5.72205e-06
    endloop
  endfacet
  facet normal -1 -0 0
    outer loop
      vertex -1.14441e-05 36.3 0.599999
      vertex -1.14441e-05 0 -5.72205e-06
      vertex -1.14441e-05 0 0.599999
    endloop
  endfacet
  facet normal 0 0 -1
    outer loop
      vertex -1.14441e-05 0 -5.72205e-06
      vertex 2.79999 36.3 -5.72205e-06
      vertex 2.79999 0 -5.72205e-06
    endloop
  endfacet
  facet normal -0 0 -1
    outer loop
      vertex 2.79999 36.3 -5.72205e-06
      vertex -1.14441e-05 0 -5.72205e-06
      vertex -1.14441e-05 36.3 -5.72205e-06
    endloop
  endfacet
  facet normal 0 1 0
    outer loop
      vertex 5.80001 36.3 -5.72205e-06
      vertex 8.60001 36.3 0.599999
      vertex 8.60001 36.3 -5.72205e-06
    endloop
  endfacet
  facet normal 0 1 0
    outer loop
      vertex 8.60001 36.3 0.599999
      vertex 5.80001 36.3 -5.72205e-06
      vertex 5.80001 36.3 3.39999
    endloop
  endfacet
  facet normal 0.707106 0 0.707108
    outer loop
      vertex 5.80001 36.3 3.39999
      vertex 8.60001 0 0.599999
      vertex 8.60001 36.3 0.599999
    endloop
  endfacet
  facet normal 0.707106 0 0.707108
    outer loop
      vertex 8.60001 0 0.599999
      vertex 5.80001 36.3 3.39999
      vertex 5.80001 0 3.39999
    endloop
  endfacet
  facet normal 0 -1 0
    outer loop
      vertex 5.80001 0 -5.72205e-06
      vertex 8.60001 0 0.599999
      vertex 5.80001 0 3.39999
    endloop
  endfacet
  facet normal 0 -1 -0
    outer loop
      vertex 8.60001 0 0.599999
      vertex 5.80001 0 -5.72205e-06
      vertex 8.60001 0 -5.72205e-06
    endloop
  endfacet
  facet normal -1 0 0
    outer loop
      vertex 5.80001 0 -5.72205e-06
      vertex 5.80001 36.3 3.39999
      vertex 5.80001 36.3 -5.72205e-06
    endloop
  endfacet
  facet normal -1 -0 0
    outer loop
      vertex 5.80001 36.3 3.39999
      vertex 5.80001 0 -5.72205e-06
      vertex 5.80001 0 3.39999
    endloop
  endfacet
  facet normal 0 0 -1
    outer loop
      vertex 5.80001 0 -5.72205e-06
      vertex 8.60001 36.3 -5.72205e-06
      vertex 8.60001 0 -5.72205e-06
    endloop
  endfacet
  facet normal -0 0 -1
    outer loop
      vertex 8.60001 36.3 -5.72205e-06
      vertex 5.80001 0 -5.72205e-06
      vertex 5.80001 36.3 -5.72205e-06
    endloop
  endfacet
  facet normal 1 -0 0
    outer loop
      vertex 8.60001 0 0.599999
      vertex 8.60001 36.3 -5.72205e-06
      vertex 8.60001 36.3 0.599999
    endloop
  endfacet
  facet normal 1 0 0
    outer loop
      vertex 8.60001 36.3 -5.72205e-06
      vertex 8.60001 0 0.599999
      vertex 8.60001 0 -5.72205e-06
    endloop
  endfacet
endsolid OpenSCAD_Model
